# xmcd CD database file
#
# Track frame offsets:
#	150
#	27032
#	57451
#	78697
#	97954
#	121245
#	153447
#	173514
#	202734
#	225889
#	249092
#	287471
#
# Disc length: 4138 seconds
#
# Revision: 0
# Processed by: cddbd v1.5.2PL0 Copyright (c) Steve Scherf et al.
# Submitted via: CDex 1.51
#
DISCID=8210280c
DTITLE=HammondEx - Latin blow
DYEAR=2005
DGENRE=Jazz
TTITLE0=Hammond Shuffle
TTITLE1=Latin blow
TTITLE2=Galveston
TTITLE3=Ustinatov
TTITLE4=Mrs. Wilcox leaves the Bushland
TTITLE5=Hendrex
TTITLE6=Patti Linn
TTITLE7=Like a Bossa
TTITLE8=New Start
TTITLE9=Conga Square
TTITLE10=Düsterwalde Blues
TTITLE11=Work Song
EXTD=YEAR: 2005
EXTT0=
EXTT1=
EXTT2=
EXTT3=
EXTT4=
EXTT5=
EXTT6=
EXTT7=
EXTT8=
EXTT9=
EXTT10=
EXTT11=
PLAYORDER=
